<?xml version="1.0" encoding="UTF-8"?>
<svg xmlns="http://www.w3.org/2000/svg" xmlns:xlink="http://www.w3.org/1999/xlink" width="512" height="512" viewBox="0 0 60 60" version="1.1"><!-- Generator: Sketch 51.3 (57544) - http://www.bohemiancoding.com/sketch --><title>014 - PH Reader</title><desc>Created with Sketch.</desc><defs/><g id="Page-1" stroke="none" stroke-width="1" fill="none" fill-rule="evenodd"><g id="014---PH-Reader" transform="translate(1.000000, 1.000000)"><path d="M50,49.88 L48,47.313 L50,45.27 L53.5,43.249 C53.8093932,43.0703717 53.9999909,42.7402565 54,42.383 L54,39 C54,38.4477153 53.5522847,38 53,38 L50,38 L48,36 L50,34 L54,34 C56.209139,34 58,35.790861 58,38 L58,42.958 C58.0006785,44.3877405 57.2381919,45.7091298 56,46.424 L50,49.88 Z" id="Shape" fill="#00838F" fill-rule="nonzero"/><rect id="Rectangle-path" fill="#FEC108" fill-rule="nonzero" x="34" y="29.81" width="16" height="26.19"/><rect id="Rectangle-path" fill="#FFDC00" fill-rule="nonzero" x="34" y="29.81" width="13" height="26.19"/><path d="M27.99,32.5 C27.2959186,33.4065559 26.9451994,34.5295661 27,35.67 C26.9975629,36.2966578 27.0885631,36.9201778 27.27,37.52 C27.6582692,38.6948902 27.6617722,39.9629826 27.28,41.14 C26.9066755,42.351901 26.9066755,43.648099 27.28,44.86 C27.6617722,46.0370174 27.6582692,47.3051098 27.27,48.48 C27.0885631,49.0798222 26.9975629,49.7033422 27,50.33 C26.9451994,51.4704339 27.2959186,52.5934441 27.99,53.5 C28.6098071,54.10833 28.9715081,54.9320055 29,55.8 L29,56 C28.9967052,57.1032019 28.1032019,57.9967052 27,58 L2,58 C0.896798134,57.9967052 0.00329480111,57.1032019 0,56 L0,55.8 C0.0284919373,54.9320055 0.39019288,54.10833 1.01,53.5 C1.70408136,52.5934441 2.05480065,51.4704339 2,50.33 C2.00243712,49.7033422 1.91143691,49.0798222 1.73,48.48 C1.34173078,47.3051098 1.33822776,46.0370174 1.72,44.86 C1.91054006,44.2585764 2.00503427,43.6308649 2,43 C2.00503427,42.3691351 1.91054006,41.7414236 1.72,41.14 C1.33822776,39.9629826 1.34173078,38.6948902 1.73,37.52 C1.91143691,36.9201778 2.00243712,36.2966578 2,35.67 C2.05480065,34.5295661 1.70408136,33.4065559 1.01,32.5 C0.39019288,31.89167 0.0284919373,31.0679945 8.8817842e-16,30.2 L8.8817842e-16,12 C0.00329480111,10.8967981 0.896798134,10.0032948 2,10 L27,10 C28.1032019,10.0032948 28.9967052,10.8967981 29,12 L29,30.2 C28.9715081,31.0679945 28.6098071,31.89167 27.99,32.5 Z" id="Shape" fill="#0377BC" fill-rule="nonzero"/><path d="M24.99,32.5 C24.2959186,33.4065559 23.9451994,34.5295661 24,35.67 C23.9975629,36.2966578 24.0885631,36.9201778 24.27,37.52 C24.6582692,38.6948902 24.6617722,39.9629826 24.28,41.14 C23.9066755,42.351901 23.9066755,43.648099 24.28,44.86 C24.6617722,46.0370174 24.6582692,47.3051098 24.27,48.48 C24.0885631,49.0798222 23.9975629,49.7033422 24,50.33 C23.9451994,51.4704339 24.2959186,52.5934441 24.99,53.5 C25.6098071,54.10833 25.9715081,54.9320055 26,55.8 L26,56 C25.9967052,57.1032019 25.1032019,57.9967052 24,58 L2,58 C0.896798134,57.9967052 0.00329480111,57.1032019 0,56 L0,55.8 C0.0284919373,54.9320055 0.39019288,54.10833 1.01,53.5 C1.70408136,52.5934441 2.05480065,51.4704339 2,50.33 C2.00243712,49.7033422 1.91143691,49.0798222 1.73,48.48 C1.34173078,47.3051098 1.33822776,46.0370174 1.72,44.86 C1.91054006,44.2585764 2.00503427,43.6308649 2,43 C2.00503427,42.3691351 1.91054006,41.7414236 1.72,41.14 C1.33822776,39.9629826 1.34173078,38.6948902 1.73,37.52 C1.91143691,36.9201778 2.00243712,36.2966578 2,35.67 C2.05480065,34.5295661 1.70408136,33.4065559 1.01,32.5 C0.39019288,31.89167 0.0284919373,31.0679945 8.8817842e-16,30.2 L8.8817842e-16,12 C0.00329480111,10.8967981 0.896798134,10.0032948 2,10 L24,10 C25.1032019,10.0032948 25.9967052,10.8967981 26,12 L26,30.2 C25.9715081,31.0679945 25.6098071,31.89167 24.99,32.5 Z" id="Shape" fill="#02A9F4" fill-rule="nonzero"/><path d="M50,28 L50,32 L34,32 L34,28 C34,27.4477153 34.4477153,27 35,27 L49,27 C49.5522847,27 50,27.4477153 50,28 Z" id="Shape" fill="#CFD8DC" fill-rule="nonzero"/><path d="M47,28 L47,32 L34,32 L34,28 C34,27.4477153 34.4477153,27 35,27 L46,27 C46.5522847,27 47,27.4477153 47,28 Z" id="Shape" fill="#F5F5F5" fill-rule="nonzero"/><rect id="Rectangle-path" fill="#00838F" fill-rule="nonzero" x="33" y="54" width="18" height="4" rx="1"/><rect id="Rectangle-path" fill="#00BCD4" fill-rule="nonzero" x="33" y="54" width="15" height="4" rx="1"/><circle id="Oval" fill="#F9EAB0" fill-rule="nonzero" cx="40" cy="40" r="2"/><rect id="Rectangle-path" fill="#00838F" fill-rule="nonzero" x="4" y="14" width="21" height="15" rx="2"/><rect id="Rectangle-path" fill="#00BCD4" fill-rule="nonzero" x="4" y="14" width="18" height="15" rx="2"/><path d="M24,6 C25.1045695,6 26,6.8954305 26,8 L26,10 L22,10 L22,8 C22,6.8954305 22.8954305,6 24,6 Z" id="Shape" fill="#37474F" fill-rule="nonzero"/><path d="M42.81,18 L41.19,18 C40.6284037,17.9994966 40.0928948,17.7629001 39.7143673,17.3480415 C39.3358398,16.933183 39.1491753,16.378292 39.2,15.819 L39.837,8.819 C39.9305184,7.78987666 40.7926373,7.00144314 41.826,7 L42.174,7 C43.2081298,7.00040999 44.0714113,7.78911366 44.165,8.819 L44.802,15.819 C44.852856,16.3786385 44.6659278,16.9338535 44.2869582,17.3487795 C43.9079885,17.7637056 43.3719445,18.0000582 42.81,18 Z" id="Shape" fill="#37474F" fill-rule="nonzero"/><path d="M27,35.67 C26.9960058,36.2960798 27.0884216,36.919043 27.274,37.517 C27.6554887,38.6952229 27.6554887,39.9637771 27.274,41.142 C26.9073237,42.3535303 26.9073237,43.6464697 27.274,44.858 C27.6554887,46.0362229 27.6554887,47.3047771 27.274,48.483 C27.0884216,49.080957 26.9960058,49.7039202 27,50.33 C26.9431577,51.4711743 27.2952575,52.5951988 27.993,53.5 C28.6098195,54.1101083 28.9700742,54.9329343 29,55.8 L29,56 C28.9967052,57.1032019 28.1032019,57.9967052 27,58 L2,58 C0.896798134,57.9967052 0.00329480111,57.1032019 2.22044605e-16,56 L2.22044605e-16,55.8 C0.0299258174,54.9329343 0.390180523,54.1101083 1.007,53.5 C1.70474254,52.5951988 2.05684234,51.4711743 2,50.33 C2.00399419,49.7039202 1.91157843,49.080957 1.726,48.483 C1.34451134,47.3047771 1.34451134,46.0362229 1.726,44.858 C1.91171807,44.2563017 2.0041241,43.6296944 2,43 C2.00380028,42.370254 1.91105684,41.7436455 1.725,41.142 C1.34351134,39.9637771 1.34351134,38.6952229 1.725,37.517 C1.91091725,36.919096 2.00367047,36.2961317 2,35.67 C2.05684234,34.5288257 1.70474254,33.4048012 1.007,32.5 C0.391344794,31.8911354 0.0311864845,31.0703178 0,30.205 L0,12 C0.00329480111,10.8967981 0.896798134,10.0032948 2,10 L27,10 C28.1032019,10.0032948 28.9967052,10.8967981 29,12 L29,30.2 C28.9700742,31.0670657 28.6098195,31.8898917 27.993,32.5 C27.2952575,33.4048012 26.9431577,34.5288257 27,35.67 Z" id="Shape" stroke="#000000" stroke-width="2" stroke-linecap="round" stroke-linejoin="round"/><path d="M50,28 L50,54 L34,54 L34,28 C34,27.4477153 34.4477153,27 35,27 L49,27 C49.5522847,27 50,27.4477153 50,28 Z" id="Shape" stroke="#000000" stroke-width="2" stroke-linecap="round" stroke-linejoin="round"/><rect id="Rectangle-path" stroke="#000000" stroke-width="2" stroke-linecap="round" stroke-linejoin="round" x="33" y="54" width="18" height="4" rx="1"/><path d="M50,49.88 L50,45.27 L53.5,43.249 C53.8093932,43.0703717 53.9999909,42.7402565 54,42.383 L54,39 C54,38.4477153 53.5522847,38 53,38 L50,38 L50,34 L54,34 C56.209139,34 58,35.790861 58,38 L58,42.958 C58.0006785,44.3877405 57.2381919,45.7091298 56,46.424 L50,49.88 Z" id="Shape" stroke="#000000" stroke-width="2" stroke-linecap="round" stroke-linejoin="round"/><path d="M50,32 L34,32" id="Shape" stroke="#000000" stroke-width="2" stroke-linecap="round" stroke-linejoin="round"/><circle id="Oval" stroke="#000000" stroke-width="2" stroke-linecap="round" stroke-linejoin="round" cx="40" cy="40" r="2"/><circle id="Oval" fill="#000000" fill-rule="nonzero" cx="45" cy="50" r="1"/><circle id="Oval" fill="#000000" fill-rule="nonzero" cx="40" cy="47" r="1"/><circle id="Oval" fill="#000000" fill-rule="nonzero" cx="46" cy="37" r="1"/><path d="M42,34 L42,18" id="Shape" stroke="#000000" stroke-width="2" stroke-linecap="round" stroke-linejoin="round"/><path d="M42.81,18 L41.19,18 C40.6284037,17.9994966 40.0928948,17.7629001 39.7143673,17.3480415 C39.3358398,16.933183 39.1491753,16.378292 39.2,15.819 L39.837,8.819 C39.9305184,7.78987666 40.7926373,7.00144314 41.826,7 L42.174,7 C43.2081298,7.00040999 44.0714113,7.78911366 44.165,8.819 L44.802,15.819 C44.852856,16.3786385 44.6659278,16.9338535 44.2869582,17.3487795 C43.9079885,17.7637056 43.3719445,18.0000582 42.81,18 Z" id="Shape" stroke="#000000" stroke-width="2" stroke-linecap="round" stroke-linejoin="round"/><path d="M24.08,6 C24.5681592,2.55444148 27.5200362,-0.00498944229 31,-1.22124617e-15 L35,-1.22124617e-15 C38.8659932,-2.22044605e-16 42,3.13400675 42,7" id="Shape" stroke="#000000" stroke-width="2" stroke-linecap="round" stroke-linejoin="round"/><rect id="Rectangle-path" stroke="#000000" stroke-width="2" stroke-linecap="round" stroke-linejoin="round" x="4" y="14" width="21" height="15" rx="2"/><path d="M7,41 L7,51" id="Shape" stroke="#000000" stroke-width="2" stroke-linecap="round" stroke-linejoin="round"/><path d="M7,41 L10.5,41 C11.8807119,41 13,42.1192881 13,43.5 C13,44.1630412 12.7366079,44.798926 12.267767,45.267767 C11.798926,45.7366079 11.1630412,46 10.5,46 L7,46 L7,41 Z" id="Shape" stroke="#000000" stroke-width="2" stroke-linecap="round" stroke-linejoin="round"/><path d="M16,41 L16,51" id="Shape" stroke="#000000" stroke-width="2" stroke-linecap="round" stroke-linejoin="round"/><polyline id="Shape" stroke="#000000" stroke-width="2" stroke-linecap="round" stroke-linejoin="round" points="22 41 22 46 22 51"/><path d="M16,46 L22,46" id="Shape" stroke="#000000" stroke-width="2" stroke-linecap="round" stroke-linejoin="round"/><rect id="Rectangle-path" stroke="#000000" stroke-width="2" stroke-linecap="round" stroke-linejoin="round" x="8" y="18" width="5" height="7" rx="1"/><rect id="Rectangle-path" stroke="#000000" stroke-width="2" stroke-linecap="round" stroke-linejoin="round" x="17" y="18" width="5" height="7" rx="1"/><path d="M12.75,18.34 L8.25,24.66" id="Shape" stroke="#000000" stroke-width="2" stroke-linecap="round" stroke-linejoin="round"/><path d="M21.75,18.34 L17.25,24.66" id="Shape" stroke="#000000" stroke-width="2" stroke-linecap="round" stroke-linejoin="round"/><path d="M24,6 C25.1045695,6 26,6.8954305 26,8 L26,10 L22,10 L22,8 C22,6.8954305 22.8954305,6 24,6 Z" id="Shape" stroke="#000000" stroke-width="2" stroke-linecap="round" stroke-linejoin="round"/><path d="M6,33 L9,33" id="Shape" stroke="#000000" stroke-width="2" stroke-linecap="round" stroke-linejoin="round"/><path d="M13,33 L16,33" id="Shape" stroke="#000000" stroke-width="2" stroke-linecap="round" stroke-linejoin="round"/><path d="M20,33 L23,33" id="Shape" stroke="#000000" stroke-width="2" stroke-linecap="round" stroke-linejoin="round"/></g></g></svg>
